<svg width="33" height="32" viewBox="0 0 33 32" fill="none" xmlns="http://www.w3.org/2000/svg">
<g id="xrp 1" clip-path="url(#clip0_2001_208)">
<path id="Vector" d="M27.628 2.75H32.2531L22.628 12.28C19.1424 15.7293 13.4911 15.7293 10.0029 12.28L0.374146 2.75H5.00295L12.3155 9.98933C13.3809 11.0394 14.8168 11.628 16.3127 11.628C17.8086 11.628 19.2444 11.0394 20.3099 9.98933L27.628 2.75Z" fill="#B6B8C8"/>
<path id="Vector_2" d="M4.94417 29.2508H0.31604L10.0035 19.662C13.4891 16.2126 19.1404 16.2126 22.6286 19.662L32.316 29.2508H27.691L20.316 21.9526C19.2506 20.9025 17.8148 20.3139 16.3188 20.3139C14.8229 20.3139 13.3871 20.9025 12.3216 21.9526L4.94417 29.2508Z" fill="#B6B8C8"/>
</g>
<defs>
<clipPath id="clip0_2001_208">
<rect width="32" height="32" fill="white" transform="translate(0.31604)"/>
</clipPath>
</defs>
</svg>
