<svg width="33" height="32" viewBox="0 0 33 32" fill="none" xmlns="http://www.w3.org/2000/svg">
<g id="btc 4">
<path id="Vector" d="M26.836 13.2559C27.276 10.3139 25.0362 8.73254 21.9735 7.67764L22.9671 3.69254L20.5412 3.08807L19.574 6.96827C18.9362 6.80921 18.2813 6.65934 17.6304 6.51076L18.6046 2.60496L16.1802 2.00049L15.1861 5.98429C14.6584 5.86413 14.14 5.74538 13.6371 5.62025L13.6398 5.60771L10.2945 4.77232L9.64919 7.36332C9.64919 7.36332 11.449 7.77588 11.4111 7.80127C12.3934 8.04645 12.5711 8.69673 12.5416 9.21217L11.4098 13.7522C11.4774 13.7694 11.5652 13.7942 11.662 13.8331C11.5811 13.813 11.4949 13.7911 11.4056 13.7697L9.81919 20.1296C9.69914 20.428 9.39441 20.8759 8.70759 20.7058C8.73191 20.7411 6.94439 20.2658 6.94439 20.2658L5.73999 23.0426L8.89689 23.8296C9.48418 23.9769 10.0597 24.131 10.6265 24.2759L9.62259 28.3067L12.0457 28.9112L13.0398 24.9232C13.7018 25.1029 14.3441 25.2686 14.973 25.4249L13.9822 29.3941L16.4082 29.9985L17.4119 25.9752C21.5485 26.7581 24.6589 26.4425 25.9681 22.7009C27.0231 19.6885 25.9156 17.9509 23.7393 16.8179C25.3244 16.4524 26.5177 15.4095 26.836 13.2559ZM21.2935 21.028C20.5438 24.0404 15.4718 22.412 13.8274 22.0037L15.1595 16.6635C16.8038 17.074 22.0769 17.8864 21.2935 21.028ZM22.0438 13.2123C21.3599 15.9524 17.1385 14.5603 15.7691 14.219L16.9768 9.37584C18.3462 9.71719 22.756 10.3542 22.0438 13.2123Z" fill="#B6B8C8"/>
</g>
</svg>
