<svg width="33" height="32" viewBox="0 0 33 32" fill="none" xmlns="http://www.w3.org/2000/svg">
<g id="trx" clip-path="url(#clip0_2001_206)">
<path id="Vector" d="M31.0911 9.63994C29.5911 8.25494 27.5161 6.13994 25.8261 4.63994L25.7261 4.56994C25.5597 4.43633 25.3721 4.33154 25.1711 4.25994C21.0961 3.49994 2.13106 -0.0450636 1.76106 -6.36484e-05C1.65739 0.0144564 1.55829 0.0520457 1.47106 0.109936L1.37606 0.184936C1.25909 0.303737 1.17024 0.447258 1.11606 0.604936L1.09106 0.669936V1.02494V1.07994C3.22606 7.02494 11.6561 26.4999 13.3161 31.0699C13.4161 31.3799 13.6061 31.9699 13.9611 31.9999H14.0411C14.2311 31.9999 15.0411 30.9299 15.0411 30.9299C15.0411 30.9299 29.5211 13.3699 30.9861 11.4999C31.1757 11.2696 31.3431 11.0218 31.4861 10.7599C31.5226 10.555 31.5053 10.3442 31.4361 10.1479C31.3669 9.95162 31.248 9.77662 31.0911 9.63994ZM18.7561 11.6849L24.9361 6.55994L28.5611 9.89994L18.7561 11.6849ZM16.3561 11.3499L5.71606 2.62994L22.9311 5.80494L16.3561 11.3499ZM17.3161 13.6349L28.2061 11.8799L15.7561 26.8799L17.3161 13.6349ZM4.27106 3.49994L15.4661 12.9999L13.8461 26.8899L4.27106 3.49994Z" fill="#B6B8C8"/>
</g>
<defs>
<clipPath id="clip0_2001_206">
<rect width="32" height="32" fill="white" transform="translate(0.31604)"/>
</clipPath>
</defs>
</svg>
