<svg width="33" height="32" viewBox="0 0 33 32" fill="none" xmlns="http://www.w3.org/2000/svg">
<g id="usdt 1">
<path id="Vector" fill-rule="evenodd" clip-rule="evenodd" d="M19.1867 16.9759C19.0264 16.9879 18.198 17.0373 16.3502 17.0373C14.8804 17.0373 13.837 16.9932 13.4708 16.9759C7.79097 16.726 3.5515 15.7373 3.5515 14.5535C3.5515 13.3697 7.79097 12.3823 13.4708 12.1284V15.9911C13.8423 16.0178 14.9058 16.0806 16.3755 16.0806C18.1392 16.0806 19.0223 16.0071 19.1814 15.9924V12.1311C24.8492 12.3836 29.0794 13.3724 29.0794 14.5535C29.0794 15.7346 24.8506 16.7234 19.1814 16.9746L19.1867 16.9759ZM19.1867 11.7316V8.27508H27.0966V3.00415H5.56057V8.27508H13.4691V11.7303C7.04097 12.0256 2.20697 13.299 2.20697 14.8247C2.20697 16.3506 7.0411 17.6226 13.4691 17.9191V28.9955H19.185V17.9151C25.5983 17.6198 30.4244 16.3478 30.4244 14.8234C30.4244 13.2988 25.6024 12.0268 19.185 11.7303L19.1867 11.7316Z" fill="#B6B8C8"/>
</g>
</svg>
