<svg width="36" height="32" viewBox="0 0 36 32" fill="none" xmlns="http://www.w3.org/2000/svg">
<g id="ada 1" clip-path="url(#clip0_2001_164)">
<path id="Vector" d="M10.1778 15.8845C10.1039 17.1682 11.0921 18.2672 12.3758 18.3411C12.4219 18.3411 12.4681 18.3411 12.5143 18.3411C13.8072 18.3411 14.8508 17.2975 14.8416 16.0046C14.8416 14.7117 13.798 13.6681 12.505 13.6773C11.2675 13.6773 10.2424 14.647 10.1778 15.8845Z" fill="#B6B8C8"/>
<path id="Vector_2" d="M1.47823 15.2844C1.06265 15.2567 0.702473 15.5799 0.684002 15.9955C0.665532 16.4111 0.979529 16.7712 1.39511 16.7897C1.8107 16.8174 2.16164 16.4942 2.18934 16.0786C2.21705 15.663 1.89381 15.3121 1.47823 15.2844Z" fill="#B6B8C8"/>
<path id="Vector_3" d="M10.03 2.34583C10.3994 2.16112 10.5472 1.69936 10.3625 1.32995C10.1778 0.960545 9.71603 0.812782 9.34662 0.997486C8.97721 1.18219 8.82944 1.63472 9.01415 2.00412C9.19885 2.38277 9.65138 2.53977 10.03 2.34583Z" fill="#B6B8C8"/>
<path id="Vector_4" d="M12.3943 6.47399C12.9668 6.1877 13.1977 5.48582 12.9114 4.91324C12.6251 4.34065 11.9233 4.10977 11.3507 4.39607C10.7781 4.68236 10.5472 5.38423 10.8335 5.95682C11.1198 6.5294 11.8217 6.76028 12.3943 6.47399Z" fill="#B6B8C8"/>
<path id="Vector_5" d="M4.43351 9.30917C4.8768 9.59546 5.46785 9.4754 5.76338 9.03211C6.04967 8.58882 5.92961 7.99777 5.48632 7.70224C5.04303 7.41595 4.45198 7.53601 4.15645 7.9793C3.86093 8.42259 3.99022 9.02288 4.43351 9.30917Z" fill="#B6B8C8"/>
<path id="Vector_6" d="M5.84645 14.8687C5.19999 14.8317 4.65511 15.3212 4.61817 15.9676C4.58123 16.6141 5.0707 17.159 5.71716 17.1959C6.36363 17.2329 6.9085 16.7434 6.94544 16.0969C6.98239 15.4597 6.49292 14.9056 5.84645 14.8687Z" fill="#B6B8C8"/>
<path id="Vector_7" d="M4.56277 22.6909C4.09178 22.931 3.89784 23.5036 4.13795 23.9838C4.37807 24.4548 4.95065 24.6487 5.43088 24.4086C5.90188 24.1685 6.09582 23.5959 5.8557 23.1157C5.61558 22.6447 5.03377 22.4508 4.56277 22.6909Z" fill="#B6B8C8"/>
<path id="Vector_8" d="M9.08806 12.4583C9.72529 12.8739 10.5749 12.6984 10.9813 12.0612C11.3969 11.424 11.2214 10.5743 10.5842 10.168C9.94693 9.75241 9.09729 9.92788 8.69095 10.5651C8.27536 11.1931 8.45083 12.0427 9.08806 12.4583Z" fill="#B6B8C8"/>
<path id="Vector_9" d="M23.4488 6.38141C23.9844 6.73235 24.714 6.58459 25.0649 6.04895C25.4159 5.5133 25.2681 4.78372 24.7325 4.43278C24.1968 4.08185 23.4672 4.22961 23.1163 4.76525C22.7561 5.31013 22.9039 6.03048 23.4488 6.38141Z" fill="#B6B8C8"/>
<path id="Vector_10" d="M25.8315 2.27197C26.1824 2.50285 26.6442 2.40127 26.8751 2.05033C27.1059 1.69939 27.0043 1.23763 26.6534 1.00675C26.3025 0.77587 25.8407 0.877458 25.6098 1.21916C25.3882 1.5701 25.4898 2.04109 25.8315 2.27197Z" fill="#B6B8C8"/>
<path id="Vector_11" d="M23.6243 13.6589C22.3406 13.585 21.2324 14.5732 21.1677 15.8569C21.0938 17.1406 22.082 18.2488 23.3657 18.3135C23.4119 18.3135 23.458 18.3135 23.495 18.3135C24.7787 18.3135 25.8223 17.2699 25.8223 15.977C25.8315 14.7487 24.8618 13.7236 23.6243 13.6589Z" fill="#B6B8C8"/>
<path id="Vector_12" d="M13.1608 12.2921C13.5579 13.0771 14.3614 13.5758 15.2479 13.5758C16.5316 13.5758 17.5752 12.5322 17.5752 11.2393C17.5752 10.8791 17.4921 10.5189 17.3259 10.1865C16.744 9.03205 15.3403 8.57029 14.1951 9.15211C13.0407 9.74316 12.579 11.1469 13.1608 12.2921Z" fill="#B6B8C8"/>
<path id="Vector_13" d="M31.4372 9.30903C31.9082 9.06891 32.0929 8.48709 31.8528 8.0161C31.6127 7.5451 31.0309 7.3604 30.5599 7.60051C30.0889 7.84063 29.9042 8.41321 30.1351 8.88421C30.3844 9.3552 30.957 9.54914 31.4372 9.30903Z" fill="#B6B8C8"/>
<path id="Vector_14" d="M25.5267 10.0478C24.8526 10.3895 24.5755 11.2114 24.9172 11.8856C25.2589 12.5598 26.0808 12.8368 26.755 12.4951C27.4292 12.1534 27.7062 11.3315 27.3645 10.6573C27.0228 9.98315 26.2009 9.71533 25.5267 10.0478Z" fill="#B6B8C8"/>
<path id="Vector_15" d="M17.9077 1.92082C18.4341 1.94853 18.8866 1.54218 18.9235 1.01577C18.9605 0.489367 18.5449 0.0368416 18.0185 -9.92517e-05C17.4921 -0.0278049 17.0396 0.369309 17.0026 0.895716C16.9749 1.43136 17.3813 1.88388 17.9077 1.92082Z" fill="#B6B8C8"/>
<path id="Vector_16" d="M17.8984 7.95152C18.6557 7.9977 19.3022 7.41588 19.3391 6.65859C19.3853 5.90131 18.8035 5.25484 18.0462 5.2179C17.2889 5.17173 16.6425 5.75354 16.6055 6.51083C16.5686 7.26812 17.1412 7.91458 17.8984 7.95152Z" fill="#B6B8C8"/>
<path id="Vector_17" d="M10.4733 21.9521C11.1475 21.6104 11.4246 20.7884 11.0829 20.1143C10.7412 19.4401 9.91922 19.163 9.24505 19.5047C8.57088 19.8464 8.29383 20.6684 8.63553 21.3425C8.97723 22.0167 9.79917 22.2938 10.4733 21.9521Z" fill="#B6B8C8"/>
<path id="Vector_18" d="M18.785 9.95565C18.0831 11.0362 18.3786 12.4769 19.4591 13.1787C20.5397 13.8806 21.9804 13.5851 22.6822 12.5046C23.3841 11.424 23.0886 9.98335 22.0081 9.28148C21.6294 9.03212 21.1861 8.90283 20.7336 8.90283C19.9486 8.90283 19.219 9.29995 18.785 9.95565Z" fill="#B6B8C8"/>
<path id="Vector_19" d="M22.8393 19.7079C22.2575 18.5535 20.8537 18.0918 19.7085 18.6736C18.5541 19.2554 18.0924 20.6592 18.6742 21.8043C19.256 22.9587 20.6598 23.4205 21.8049 22.8387C22.9501 22.2661 23.4211 20.8808 22.8485 19.7264C22.8485 19.7172 22.8485 19.7172 22.8393 19.7079Z" fill="#B6B8C8"/>
<path id="Vector_20" d="M26.912 19.5418C26.2748 19.1262 25.4251 19.3017 25.0188 19.9389C24.6032 20.5761 24.7786 21.4258 25.4159 21.8321C26.0531 22.2477 26.9027 22.0722 27.3091 21.435C27.7247 20.807 27.5492 19.9574 26.912 19.5418Z" fill="#B6B8C8"/>
<path id="Vector_21" d="M31.3818 16.0415C31.4188 15.3951 30.9293 14.8502 30.2829 14.8132C29.6364 14.7763 29.0915 15.2658 29.0546 15.9122C29.0176 16.5587 29.5071 17.1036 30.1536 17.1405C30.7908 17.1775 31.3449 16.6788 31.3818 16.0415Z" fill="#B6B8C8"/>
<path id="Vector_22" d="M34.6049 15.2104C34.1894 15.1827 33.8292 15.5059 33.8107 15.9215C33.7922 16.3371 34.1062 16.6973 34.5218 16.7157C34.9374 16.7434 35.2883 16.4202 35.316 16.0046C35.3345 15.589 35.0205 15.2381 34.6049 15.2104Z" fill="#B6B8C8"/>
<path id="Vector_23" d="M31.5665 22.691C31.1232 22.4047 30.5322 22.5248 30.2367 22.9681C29.9504 23.4114 30.0704 24.0024 30.5137 24.2979C30.957 24.5842 31.5481 24.4642 31.8436 24.0209C32.1391 23.5776 32.0098 22.9773 31.5665 22.691Z" fill="#B6B8C8"/>
<path id="Vector_24" d="M10.1593 29.7282C9.8084 29.4973 9.34664 29.5989 9.11576 29.9406C8.88488 30.2915 8.98647 30.7533 9.32817 30.9842C9.67911 31.2151 10.1409 31.1135 10.3717 30.7718C10.6119 30.4301 10.5103 29.9591 10.1593 29.7282Z" fill="#B6B8C8"/>
<path id="Vector_25" d="M25.97 29.6541C25.6006 29.8388 25.4528 30.3006 25.6375 30.67C25.8222 31.0394 26.284 31.1872 26.6534 31.0025C27.0228 30.8178 27.1705 30.3653 26.9858 29.9958C26.8011 29.6172 26.3486 29.4602 25.97 29.6541Z" fill="#B6B8C8"/>
<path id="Vector_26" d="M17.215 22.0445C17.9169 20.9639 17.6214 19.5232 16.5408 18.8121C15.4603 18.1103 14.0196 18.4058 13.3085 19.4863C12.5974 20.5668 12.9022 22.0075 13.9827 22.7186C14.3613 22.968 14.8046 23.0973 15.2571 23.0973C16.0514 23.1065 16.781 22.7094 17.215 22.0445Z" fill="#B6B8C8"/>
<path id="Vector_27" d="M12.5513 25.6186C12.0156 25.2676 11.286 25.4154 10.9351 25.951C10.5842 26.4867 10.7319 27.2163 11.2676 27.5672C11.8032 27.9181 12.5328 27.7704 12.8837 27.2347C13.2439 26.6991 13.0961 25.9695 12.5513 25.6186Z" fill="#B6B8C8"/>
<path id="Vector_28" d="M17.9908 30.079C17.4643 30.0513 17.0118 30.4576 16.9749 30.984C16.9379 31.5104 17.3535 31.963 17.8799 31.9999C18.4063 32.0276 18.8589 31.6305 18.8958 31.1041C18.9235 30.5684 18.5172 30.1159 17.9908 30.079Z" fill="#B6B8C8"/>
<path id="Vector_29" d="M18 24.0485C17.2427 24.0023 16.5963 24.5841 16.5593 25.3414C16.5132 26.0987 17.095 26.7451 17.8523 26.7821C18.6095 26.819 19.256 26.2464 19.293 25.4892C19.3391 24.7411 18.7573 24.0854 18 24.0485Z" fill="#B6B8C8"/>
<path id="Vector_30" d="M23.6058 25.5261C23.0332 25.8216 22.8023 26.5235 23.0978 27.0961C23.3934 27.6687 24.0953 27.8995 24.6678 27.604C25.2404 27.3177 25.4713 26.6159 25.185 26.0433C24.8895 25.4707 24.1876 25.2306 23.6058 25.5261Z" fill="#B6B8C8"/>
</g>
<defs>
<clipPath id="clip0_2001_164">
<rect width="34.632" height="32" fill="white" transform="translate(0.68399)"/>
</clipPath>
</defs>
</svg>
