<svg width="33" height="32" viewBox="0 0 33 32" fill="none" xmlns="http://www.w3.org/2000/svg">
<g id="bnb 1">
<path id="Vector" d="M6.56247 16L6.57809 21.7262L11.4436 24.5892V27.9416L3.73062 23.418V14.3256L6.56247 16ZM6.56247 10.2739V13.6107L3.729 11.9346V8.59776L6.56247 6.92163L9.40994 8.59776L6.56247 10.2739ZM13.4754 8.59776L16.3089 6.92163L19.1563 8.59776L16.3089 10.2739L13.4754 8.59776Z" fill="#B6B8C8"/>
<path id="Vector_2" d="M8.61005 20.5401V17.1877L11.4435 18.8638V22.2006L8.61005 20.5401ZM13.4755 25.7907L16.309 27.4669L19.1564 25.7907V29.1275L16.309 30.8037L13.4755 29.1275V25.7907ZM23.2204 8.59874L26.0539 6.92261L28.9014 8.59874V11.9355L26.0539 13.6117V10.2749L23.2204 8.59874ZM26.0539 21.7277L26.0695 16.0015L28.903 14.3254V23.4178L21.1901 27.9414V24.589L26.0539 21.7277Z" fill="#B6B8C8"/>
<path id="Vector_3" d="M24.0214 20.5385L21.1879 22.1991V18.8624L24.0214 17.1863V20.5385Z" fill="#B6B8C8"/>
<path id="Vector_4" d="M24.0227 11.4608L24.0383 14.8132L19.1589 17.6762V23.4162L16.3254 25.0769L13.4919 23.4162V17.6762L8.61246 14.8132V11.4608L11.4582 9.78462L16.3081 12.6616L21.1875 9.78462L24.035 11.4608H24.0227ZM8.61072 5.73635L16.3098 1.19702L24.0227 5.73635L21.1892 7.41249L16.3098 4.53555L11.4443 7.41249L8.61072 5.73635Z" fill="#B6B8C8"/>
</g>
</svg>
