<svg width="132" height="36" viewBox="0 0 132 36" fill="none" xmlns="http://www.w3.org/2000/svg">
<g id="Group" opacity="0.94">
<path id="Vector" d="M27.895 6.20983C29.5327 6.16592 30.9303 4.98026 31.236 3.35547C31.367 2.6309 31.1705 1.88437 30.6901 1.33545C30.2097 0.786538 29.5109 0.479144 28.7684 0.501101C27.1307 0.523058 25.7113 1.70872 25.4055 3.35547C25.2745 4.08003 25.4711 4.82656 25.9515 5.39743C26.4319 5.96831 27.1525 6.23179 27.895 6.20983ZM131.577 7.81267C128.891 7.68093 125.419 10.9525 125.419 10.9525L124.327 8.14202H121.27L119.807 16.5075C119.719 17.0784 119.414 17.6053 118.955 17.9566L114.937 21.1623C114.937 21.1623 113.278 22.4358 111.006 23.9069C110.155 24.368 109.216 24.6315 108.255 24.6534C106.399 24.6534 105.263 23.9288 104.696 22.6993C104.608 22.4797 104.543 22.2382 104.477 21.9967L114.806 14.9925C115.898 14.3118 116.4 12.9944 116.073 11.7649C115.396 9.52528 113.387 7.83462 110.067 7.83462C103.866 7.83462 99.6076 13.1481 99.6076 20.7012C99.6076 21.2062 99.6513 21.6893 99.6949 22.1943L96.7688 24.2582C96.1792 24.6315 95.5241 24.851 94.8253 24.9169C93.9518 24.9169 93.5587 24.2362 93.8426 22.7212L97.6859 1.13784H92.8818L90.9601 11.8746C90.8728 12.3357 90.6762 12.7529 90.3487 13.0823L85.0641 18.6812C85.1952 17.7151 85.2607 16.7271 85.2607 15.761C85.2607 11.2159 83.1643 7.85658 79.6486 7.85658C76.242 7.85658 73.7089 10.7329 73.7089 10.7329L72.3769 8.14202H69.3852L67.7474 17.6053C67.6601 18.0225 67.4854 18.3958 67.2015 18.7251L64.1443 22.3699C63.2927 23.2701 62.3974 24.4338 61.9606 24.4558C61.1527 24.5875 60.8033 24.3021 61.0872 22.7871L62.31 15.9147C63.2709 10.4914 61.6549 7.7468 57.0036 7.7468C54.2522 7.7468 50.9985 10.8646 50.9985 10.8646C50.2997 8.82267 48.6182 7.7468 46.0633 7.7468C43.2682 7.7468 40.211 11.0403 40.211 11.0403L38.9445 8.16397H35.931L34.315 17.1223C34.2495 17.5395 34.053 17.9347 33.7691 18.2421L30.2752 22.3919C29.4235 23.2921 28.5282 24.4558 28.0915 24.4778C27.2835 24.6095 26.9341 24.3241 27.218 22.8091L29.8603 8.14202H25.0343L24.2482 12.4455C24.139 13.0164 23.8988 13.5434 23.5276 13.9605L16.4961 22.1723C15.295 23.4678 13.6572 24.2801 11.9103 24.4558H6.93146L18.243 11.5673L18.8326 8.07615H4.28919L3.59041 12.0064H12.0632L1.12283 24.9169L0.576904 28.5837C0.576904 28.5837 10.8184 28.6276 10.9931 28.5837C14.0066 28.5837 16.6708 25.883 17.7626 24.8071L23.2218 18.3519L22.2392 23.7971C21.6277 27.3321 22.9598 29.0008 25.886 28.9569C27.6766 28.913 28.8995 27.7273 30.1223 26.4978L33.4197 22.6114L32.306 28.8691H37.132L39.2502 16.6173C39.5341 15.1023 41.4557 12.5333 43.4866 12.5333C45.6266 12.5333 46.6529 13.6092 46.1725 16.4855L44.0106 28.8691H48.7929L51.1077 15.6951C51.2387 14.8168 52.8109 12.3577 54.9728 12.3577C57.222 12.3577 57.9645 13.5873 57.4622 16.4855L56.1302 23.7971C55.5187 27.3321 56.8508 29.0008 59.7769 28.9569C61.5676 28.913 62.7904 27.7273 64.0133 26.4978L66.8303 23.1164L65.8258 28.8691L64.6684 35.5H69.4944L71.0667 26.4539C71.7873 27.3541 72.7481 28.0128 73.8399 28.3641C74.102 28.4519 74.3859 28.5178 74.6479 28.5617C77.7706 28.7154 80.5439 27.2004 83.0333 24.6095L90.0867 17.2979L88.9511 23.6873C88.3397 27.2223 89.6717 28.8471 92.5761 28.8471C94.454 28.8471 96.2228 27.903 98.079 26.6954L100.547 24.9169C100.59 25.0047 100.634 25.1145 100.678 25.2023C101.791 27.3541 103.822 28.8032 106.857 28.8252C110.046 28.8252 113.146 25.7952 114.959 24.5217C115.418 24.1923 117.164 22.7871 119.042 21.2501L117.71 28.8471H122.536L124.655 16.5953C124.938 15.0803 126.86 12.5114 128.891 12.5114C129.546 12.4675 130.201 12.6431 130.769 12.9725L131.577 7.81267ZM71.6781 22.6554L72.7918 16.2221C73.294 14.707 75.0628 12.6651 76.919 12.5333C77.7488 12.4236 78.6004 12.6431 79.2774 13.1701C80.0198 14.1362 80.391 15.3438 80.3255 16.5734C80.3255 21.1623 78.0982 24.346 74.9755 24.346C73.6434 24.4119 72.3987 23.7752 71.6781 22.6554ZM104.63 16.6831C105.176 14.1362 107.207 11.9844 109.5 11.9844C110.788 11.9844 111.727 12.9505 111.4 14.0264L104.303 18.9227C104.346 18.1982 104.455 17.4297 104.63 16.6831Z" fill="#B6B8C8"/>
</g>
</svg>
