<svg width="211" height="29" viewBox="0 0 211 29" fill="none" xmlns="http://www.w3.org/2000/svg">
<g id="Vector">
<path d="M143.585 29V19.075C143.585 17.5401 142.967 16.0647 141.867 14.9769C141.053 14.1721 140.195 13.3227 139.923 13.0545H143.585V10.3869C143.585 8.852 142.967 7.37667 141.867 6.2888L137.241 1.71377C136.141 0.625899 134.649 0.0149024 133.097 0.0149024H112.816V17.8977C112.816 19.4327 113.433 20.908 114.533 21.9959L119.898 27.3011C120.998 28.389 122.489 29 124.041 29H143.6H143.585ZM119.4 11.6089V5.81192H136.247C136.654 5.81192 136.985 6.13977 136.985 6.54214V11.6089H119.4ZM119.4 22.4728V17.406H136.247C136.654 17.406 136.985 17.7338 136.985 18.1362V23.203H120.139C119.732 23.203 119.4 22.8751 119.4 22.4728Z" fill="#B6EA00"/>
<path d="M199.639 5.81192V29H193.039V5.81192H181.692V0.0149024H211V5.81192H199.639Z" fill="#B6EA00"/>
<path d="M178.031 5.81192L173.887 1.71377C172.787 0.625899 171.295 0.0149024 169.728 0.0149024H147.97V17.8977C147.97 19.4327 148.588 20.908 149.687 21.9959L155.052 27.3011C156.152 28.389 157.644 29 159.196 29H177.277V23.203H155.293C154.886 23.203 154.555 22.8751 154.555 22.4728V17.406H177.262V11.6089H154.555V5.81192H178.031Z" fill="#B6EA00"/>
<path d="M85.6928 22.4728V5.81192H109.139L104.995 1.71377C103.895 0.625899 102.403 0.0149024 100.851 0.0149024H79.093V17.8977C79.093 19.4327 79.7108 20.908 80.8108 21.9959L86.175 27.3011C87.275 28.389 88.7668 29 90.3188 29H108.401V23.203H86.4161C86.0093 23.203 85.6778 22.8751 85.6778 22.4728H85.6928Z" fill="#B6EA00"/>
<path d="M52.4976 0.0149024H33.6774V29H40.2773V16.6757L42.2211 18.5982C43.3211 19.686 44.8128 20.297 46.3648 20.297H63.7234V11.1023C63.7234 9.56732 63.1056 8.09198 62.0056 7.00411L56.6414 1.69887C55.5414 0.610997 54.0496 0 52.4976 0V0.0149024ZM40.2622 5.81192H56.3852C56.792 5.81192 57.1235 6.13977 57.1235 6.54214V14.5149H40.2773V5.81192H40.2622Z" fill="#B6EA00"/>
<path d="M74.7081 0.0149024H68.1083V29H74.7081V0.0149024Z" fill="#B6EA00"/>
<path d="M30.046 5.81192L25.9022 1.71377C24.8023 0.625899 23.3105 0.0149024 21.7585 0.0149024H0V17.8977C0 19.4327 0.617796 20.908 1.71777 21.9959L7.08205 27.3011C8.18203 28.389 9.67378 29 11.2258 29H29.3076V23.203H7.32315C6.9163 23.203 6.5848 22.8751 6.5848 22.4728V17.406H29.2926V11.6089H6.59987V5.81192H30.046Z" fill="#B6EA00"/>
</g>
</svg>
