<svg width="101" height="14" viewBox="0 0 101 14" fill="none" xmlns="http://www.w3.org/2000/svg">
<g clip-path="url(#clip0_2001_232)">
<path d="M40.701 10.8503V2.80062H51.8142L49.8495 0.820781C49.329 0.295517 48.622 0.000732422 47.8853 0.000732422H37.5759V8.64111C37.5759 9.38377 37.8683 10.0963 38.3893 10.621L40.9291 13.1807C41.4502 13.7054 42.1572 14.0002 42.8939 14.0002H51.4672V11.2008H41.0492C40.8569 11.2008 40.7016 11.0444 40.7016 10.8509L40.701 10.8503Z" fill="#C5E900"/>
<path d="M19.17 2.80054H26.8099C27.0022 2.80054 27.1575 2.95703 27.1575 3.15052V6.99979H19.17V2.80054ZM24.9658 0.000649884H16.0454V14.0001H19.1706V8.04975L20.0932 8.97963C20.6142 9.50433 21.3213 9.79911 22.0579 9.79911H30.2838V5.35856C30.2838 4.61591 29.9914 3.90342 29.4703 3.37872L26.9305 0.81899C26.4095 0.294296 25.7024 -0.000488281 24.9658 -0.000488281H24.9652L24.9658 0.000649884Z" fill="#C5E900"/>
<path d="M56.6768 10.8503V8.40039H64.6642C64.8565 8.40039 65.0118 8.55689 65.0118 8.75038V11.2003H57.0243C56.832 11.2003 56.6768 11.0438 56.6768 10.8503ZM56.6768 5.60107V2.80176H64.6642C64.8565 2.80176 65.0118 2.95826 65.0118 3.15174V5.60164H56.6768V5.60107ZM68.1364 14.0002V9.2102C68.1364 8.46754 67.844 7.75619 67.323 7.23036C66.9361 6.84054 66.5306 6.43194 66.4003 6.30048H68.1364V5.01037C68.1364 4.26771 67.844 3.55522 67.323 3.03053L65.1301 0.820211C64.6091 0.295517 63.9026 0.000732422 63.1654 0.000732422H53.5505V8.64111C53.5505 9.38377 53.8429 10.0963 54.3639 10.621L56.9037 13.1807C57.4248 13.7054 58.1318 14.0002 58.8685 14.0002H68.1369H68.1364Z" fill="#C5E900"/>
<path d="M94.7039 2.80062V14.0002H94.5304H91.5782V2.80062H86.1954V0.000732422H100.086V2.80062H94.7039Z" fill="#C5E900"/>
<path d="M35.4923 0.000732422H32.3672V14.0002H35.4923V0.000732422Z" fill="#C5E900"/>
<path d="M84.459 2.80119L82.4942 0.82135C81.9732 0.295517 81.2673 0.000732422 80.5295 0.000732422H70.2201V8.64111C70.2201 9.38377 70.5124 10.0963 71.0335 10.621L73.5733 13.1807C74.0944 13.7054 74.8008 14.0002 75.538 14.0002H84.1114V11.2008H73.6933C73.5011 11.2008 73.3458 11.0444 73.3458 10.8509V8.40096H84.1114V5.60164H73.3458V2.80233H84.459V2.80119Z" fill="#C5E900"/>
<path d="M14.3243 2.80119L12.3596 0.82135C11.8391 0.295517 11.1326 0.000732422 10.3954 0.000732422H0.085968V8.64111C0.085968 9.38377 0.378346 10.0963 0.899392 10.621L3.43921 13.1807C3.96026 13.7054 4.66731 14.0002 5.40394 14.0002H13.9773V11.2008H3.55866C3.3664 11.2008 3.21111 11.0443 3.21111 10.8509V8.40096H13.9768V5.60164H3.21111V2.80233H14.3243V2.80119Z" fill="#C5E900"/>
</g>
<defs>
<clipPath id="clip0_2001_232">
<rect width="100" height="14" fill="white" transform="translate(0.085907)"/>
</clipPath>
</defs>
</svg>
