<svg width="145" height="24" viewBox="0 0 145 24" fill="none" xmlns="http://www.w3.org/2000/svg">
<path d="M74.2913 0.404685V13.5789C74.2913 15.8486 74.1696 19.6183 68.2519 19.6183C62.3342 19.6183 62.2519 15.8486 62.2519 13.5789V0.404685H55.808V7.24241H48.7089C48.3044 4.28179 45.3438 3.99897 42.7913 3.99897C40.2388 3.99897 38.3736 5.13381 38.3736 6.63381C38.3736 7.851 39.4691 8.53835 41.1302 8.78179L49.1958 10.0384C53.3951 10.672 55.4464 11.993 55.8259 15.9238C56.1051 18.8092 57.2543 23.993 68.2519 23.993C80.3736 23.993 80.6958 17.7102 80.6958 15.1147V0.401123H74.2913V0.404685Z" fill="white"/>
<path d="M31.1707 6.88066C31.2566 8.18734 31.7828 9.3544 32.4881 10.3639C33.9165 12.4045 36.7482 13.1742 39.7017 13.6074L45.58 14.4594C48.1325 14.8246 49.5931 15.3114 49.5931 17.0549C49.5931 19.0418 47.5275 19.8938 44.4845 19.8938C41.7279 19.8938 38.4451 19.3675 38.4057 16.2458H31.1742V23.352H24.7303V19.9439C23.2518 22.3568 19.8365 24 13.3353 24C7.57876 24 0.0823389 23.3127 0 16.2172H7.25657C7.29595 19.3389 10.5823 19.8652 13.3353 19.8652C16.3747 19.8652 18.4439 19.0131 18.4439 17.0263C18.4439 15.2828 16.9833 14.7959 14.4308 14.4308L8.55251 13.5788C4.41766 12.9702 0.443914 11.7959 0.443914 7.13484C0.443914 2.06921 4.73986 0 12.2005 0C17.0656 0 24.3222 0.80906 24.7267 7.21718H17.5919C17.1874 4.25655 14.2267 3.97374 11.6742 3.97374C9.12172 3.97374 7.25657 5.10858 7.25657 6.60858C7.25657 7.82576 8.35203 8.51311 10.0131 8.75655L18.0788 10.0131C21.0072 10.457 23.4594 11.3305 24.7303 13.1492V0.404515H31.1742V6.88066H31.1707Z" fill="white"/>
<path d="M98.6242 23.2016L98.5418 21.6515H98.5096C97.8008 22.8472 96.7197 23.4415 95.2662 23.4415C93.5765 23.4415 92.2268 22.883 91.2137 21.7625C90.2149 20.6455 89.7137 19.2136 89.7137 17.4701C89.7137 15.4904 90.3438 13.9188 91.6003 12.7589C92.5669 11.8782 93.8056 11.4343 95.3127 11.4343C96.7232 11.4343 97.8473 11.7852 98.6922 12.4832C99.5371 13.1813 100.056 14.1193 100.249 15.2899H97.9583C97.8187 14.71 97.5287 14.2446 97.0884 13.8938C96.6481 13.5429 96.0717 13.3711 95.3629 13.3711C94.3175 13.3711 93.5156 13.7541 92.95 14.5167C92.3843 15.2792 92.1015 16.2637 92.1015 17.4701C92.1015 18.6766 92.3951 19.6432 92.9822 20.4057C93.5693 21.1682 94.3497 21.5513 95.3306 21.5513C96.1898 21.5513 96.9022 21.2863 97.4607 20.7529C98.0192 20.2195 98.2984 19.6145 98.2984 18.9379V18.8735H95.5239V17.0656H100.382V23.198H98.6242V23.2016Z" fill="white"/>
<path d="M102.011 23.202V11.6638H107.306C108.412 11.6638 109.31 11.961 109.994 12.5517C110.678 13.1424 111.018 13.9192 111.018 14.875C111.018 16.35 110.313 17.2808 108.902 17.6674V17.7175C109.45 17.8786 109.862 18.1364 110.137 18.4836C110.413 18.8345 110.585 19.3536 110.66 20.0409C110.682 20.2987 110.707 20.603 110.732 20.9538C110.757 21.3046 110.782 21.5803 110.796 21.7844C110.81 21.9884 110.832 22.1925 110.861 22.3965C110.889 22.6006 110.925 22.7581 110.975 22.8727C111.025 22.9872 111.086 23.0588 111.161 23.091V23.202H108.917C108.874 23.1805 108.834 23.1412 108.806 23.0803C108.773 23.023 108.745 22.9371 108.723 22.8297C108.702 22.7223 108.684 22.6113 108.666 22.5003C108.648 22.3894 108.634 22.2426 108.616 22.0636C108.598 21.8846 108.587 21.7306 108.577 21.5946C108.566 21.4586 108.552 21.2832 108.537 21.0612C108.523 20.8392 108.509 20.6638 108.498 20.535C108.401 19.2211 107.649 18.566 106.239 18.566H104.352V23.1984H102.011V23.202ZM104.352 13.5505V16.7617H106.837C107.449 16.7617 107.921 16.6149 108.247 16.3249C108.577 16.0349 108.738 15.6519 108.738 15.1793C108.738 14.7068 108.584 14.3023 108.269 14.0015C107.957 13.7008 107.499 13.5505 106.898 13.5505H104.349H104.352Z" fill="white"/>
<path d="M121.618 21.7733C120.605 22.8974 119.263 23.4595 117.584 23.4595C115.905 23.4595 114.558 22.8974 113.542 21.7733C112.525 20.6492 112.017 19.2101 112.017 17.4559C112.017 15.7017 112.525 14.259 113.542 13.1313C114.558 12.0001 115.905 11.438 117.584 11.438C119.263 11.438 120.605 12.0036 121.618 13.1313C122.628 14.2626 123.136 15.7017 123.136 17.4559C123.136 19.2101 122.631 20.6492 121.618 21.7733ZM115.235 20.3915C115.79 21.154 116.578 21.537 117.598 21.537C118.618 21.537 119.399 21.1576 119.939 20.3986C120.476 19.6397 120.745 18.6588 120.745 17.4523C120.745 16.2459 120.476 15.2614 119.939 14.4989C119.402 13.7363 118.622 13.3533 117.598 13.3533C116.574 13.3533 115.786 13.7363 115.235 14.4989C114.68 15.2614 114.405 16.2459 114.405 17.4523C114.405 18.6588 114.68 19.6253 115.235 20.3879V20.3915Z" fill="white"/>
<path d="M128.864 23.3953C127.378 23.3953 126.251 23.0588 125.474 22.3858C124.701 21.7128 124.31 20.7462 124.31 19.4896V11.6638H126.652V19.4896C126.652 20.8464 127.371 21.523 128.814 21.523C129.534 21.523 130.078 21.3333 130.443 20.9574C130.808 20.5815 130.991 20.0803 130.991 19.4574V11.6638H133.332V19.4896C133.332 20.739 132.952 21.702 132.193 22.3786C131.434 23.0552 130.325 23.3953 128.86 23.3953H128.864Z" fill="white"/>
<path d="M135.014 23.202V11.6638H140.08C141.394 11.6638 142.4 12.0254 143.098 12.745C143.785 13.4538 144.129 14.3309 144.129 15.3762C144.129 16.4753 143.785 17.3559 143.098 18.0218C142.411 18.6877 141.469 19.0206 140.273 19.0206H137.434V23.202H135.014ZM137.434 13.6972V17.1197H139.854C140.456 17.1197 140.918 16.9657 141.243 16.6579C141.566 16.35 141.727 15.9276 141.727 15.3906C141.727 14.8536 141.566 14.4347 141.243 14.1412C140.921 13.844 140.47 13.6972 139.887 13.6972H137.434Z" fill="white"/>
<path d="M89.7137 0.404576V2.82104L111.738 2.82104V0.404576L89.7137 0.404576Z" fill="url(#paint0_linear_2001_220)"/>
<defs>
<linearGradient id="paint0_linear_2001_220" x1="90.3581" y1="1.6146" x2="114.337" y2="1.6146" gradientUnits="userSpaceOnUse">
<stop stop-color="#FF2955"/>
<stop offset="1" stop-color="#FF6BD3"/>
</linearGradient>
</defs>
</svg>
