<svg width="85" height="26" viewBox="0 0 85 26" fill="none" xmlns="http://www.w3.org/2000/svg">
<path d="M35.0044 15.6809L35.0364 15.6717C36.8383 15.1563 37.9136 13.7799 37.9136 11.991C37.9136 10.7593 37.488 9.73549 36.6838 9.03102C35.881 8.32849 34.7184 7.95703 33.3211 7.95703H28.3155V20.4812H30.7092V15.8842H32.4518L32.4583 15.8933L35.7721 20.4812H38.6624L35.0246 15.7069L35.0044 15.6802V15.6809ZM33.194 13.8809H30.7092V10.0835H33.194C34.6089 10.0835 35.3883 10.7606 35.3883 11.991C35.3883 13.2214 34.6089 13.8809 33.194 13.8809Z" fill="#AD76E0"/>
<path d="M43.6562 11.0645C41.0032 11.0645 39.1498 13.041 39.1498 15.8707C39.1498 17.2868 39.5955 18.4983 40.4388 19.3729C41.2756 20.2409 42.4258 20.6997 43.7651 20.6997C45.7305 20.6997 47.1955 19.7143 47.8916 17.9241L45.9482 17.2614C45.4777 18.2897 44.755 18.7687 43.6738 18.7687C42.3822 18.7687 41.5949 17.9261 41.4568 16.3953L41.4548 16.3705H47.9821C47.9978 16.2115 47.9978 16.0127 47.9978 15.8524C47.9978 14.4545 47.5781 13.2554 46.7837 12.3861C45.9945 11.5219 44.9127 11.0645 43.6556 11.0645H43.6562ZM45.6686 14.8345H41.5252L41.5304 14.8071C41.7846 13.5324 42.4995 12.8859 43.6556 12.8859C44.7432 12.8859 45.4464 13.55 45.6901 14.8078L45.6954 14.8345H45.668H45.6686Z" fill="#AD76E0"/>
<path d="M55.4243 13.1892L54.0975 12.8484C52.7367 12.4951 51.9495 12.1152 51.9495 11.2198C51.9495 10.3719 52.8013 9.84537 54.1731 9.84537C55.6869 9.84537 56.7094 10.6287 56.9805 11.9959L59.1526 11.4472C58.9447 10.2827 58.3563 9.32532 57.4517 8.67884C56.5817 8.05713 55.4354 7.72803 54.1366 7.72803C52.8378 7.72803 51.6106 8.07733 50.7647 8.73815C49.9234 9.39505 49.4783 10.297 49.4783 11.3462C49.4783 13.2113 50.6161 14.4 53.0587 15.0876L54.3712 15.4284C55.2914 15.6786 55.8407 15.8872 56.2076 16.1264C56.6156 16.3922 56.8052 16.7109 56.8052 17.1287C56.8052 18.0189 55.8127 18.5937 54.2773 18.5937C53.4705 18.5937 52.7784 18.3643 52.2193 17.912C51.6921 17.4851 51.3076 16.8667 51.1075 16.1211L48.9941 16.8321C49.3036 18.1244 49.9495 19.1163 50.9146 19.781C51.8107 20.3982 52.942 20.711 54.2767 20.711C55.7788 20.711 57.0379 20.3526 57.9177 19.6742C58.7857 19.0049 59.2445 18.0573 59.2445 16.9338C59.2445 15.9941 58.9369 15.2362 58.3041 14.617C57.6726 13.9992 56.7309 13.532 55.4237 13.1879L55.4243 13.1892Z" fill="#F3F3F3"/>
<path d="M66.0617 11.054C65.4094 11.054 64.8261 11.1999 64.3289 11.4873C63.8831 11.7447 63.5038 12.1169 63.2008 12.5932L63.1799 12.6265V11.2677H60.8814V23.5325H63.1799V19.1023L63.2008 19.1362C63.5045 19.623 63.8837 20.003 64.3289 20.2669C64.8267 20.5621 65.41 20.7114 66.0617 20.7114C67.2132 20.7114 68.2657 20.2219 69.0249 19.3337C69.7842 18.4461 70.2019 17.2163 70.2019 15.8713C70.2019 14.5262 69.7835 13.3114 69.0249 12.4271C68.2651 11.5421 67.2126 11.054 66.0617 11.054ZM67.1943 17.9482C66.7799 18.4187 66.1966 18.6677 65.5071 18.6677C64.0486 18.6677 63.1428 17.6034 63.1428 15.8895C63.1428 15.0312 63.3709 14.317 63.8023 13.8236C64.2207 13.3459 64.8098 13.0937 65.5071 13.0937C66.2044 13.0937 66.7779 13.3459 67.1943 13.8236C67.6258 14.3183 67.8532 15.0325 67.8532 15.8895C67.8532 16.7465 67.6251 17.4588 67.1943 17.9482Z" fill="#F3F3F3"/>
<path d="M72.8588 7.4231C72.4534 7.4231 72.0819 7.55604 71.8128 7.79782C71.53 8.05263 71.3801 8.40259 71.3801 8.81054C71.3801 9.2185 71.53 9.57758 71.8128 9.82522C72.0774 10.0572 72.4488 10.185 72.8588 10.185C73.7457 10.185 74.342 9.63298 74.342 8.81054C74.342 8.40193 74.1921 8.05198 73.9086 7.79782C73.6395 7.55604 73.2661 7.4231 72.8588 7.4231Z" fill="#F3F3F3"/>
<path d="M73.9966 11.2671H71.7026V20.4931H73.9966V11.2671Z" fill="#F3F3F3"/>
<path d="M80.8086 11.054C80.0142 11.054 78.9324 11.299 78.2885 12.4655L78.267 12.504V11.2677H75.9685V20.4937H78.267V15.0632C78.267 13.8334 79.0112 13.0397 80.1634 13.0397C81.1527 13.0397 81.792 13.7858 81.792 14.9406V20.4943H84.086V14.5457C84.086 12.4903 82.7383 11.0546 80.8086 11.0546V11.054Z" fill="#F3F3F3"/>
<path d="M8.09943 24.4397L7.88176 24.7903C5.28804 24.2174 2.92892 22.8978 1.08594 21.0411C1.28601 16.244 3.06707 11.6027 7.0111 8.70654L7.33108 9.0174C5.51873 11.7356 5.00781 14.9778 5.57217 18.0831C5.96319 20.2903 6.85991 22.5556 8.09943 24.439V24.4397Z" fill="#F3F3F3"/>
<path d="M22.6634 18.4189C21.375 20.5734 19.5007 22.3675 17.2179 23.5582H17.2133C12.847 21.8572 9.12973 18.7656 7.62823 14.2305L8.01925 14.022C10.0493 16.5805 12.976 18.0729 16.1028 18.4945C18.1283 18.7832 20.3355 18.6763 22.361 18.2013L22.6634 18.4189Z" fill="#AD76E0"/>
<path d="M20.4783 13.0982C18.2886 14.4882 15.7881 15.3367 13.0693 15.3498C13.0693 15.3452 12.9937 14.9099 12.9937 14.9099C16.054 13.7727 18.3766 11.4501 19.7452 8.60673C19.7986 8.49594 19.852 8.3845 19.9048 8.26915L20.2822 8.24243C20.7794 9.87231 20.8237 11.538 20.4777 13.0975L20.4783 13.0982Z" fill="#BF95E5"/>
<path d="M15.8141 10.5158L15.3742 10.4532C15.2413 7.18823 13.7444 4.26605 11.4654 2.0855C11.3768 2.00078 11.2875 1.91671 11.1989 1.83655L11.3142 1.46313C12.9662 1.49442 14.5609 1.9519 15.9601 2.76912C16.6085 5.28725 16.6398 7.92595 15.8135 10.5151L15.8141 10.5158Z" fill="#D0B4EA"/>
<path d="M12.0702 6.41797L11.8747 6.81289C8.72962 5.93376 5.4829 6.4486 2.7067 7.94553C2.62264 7.98985 2.53335 8.03872 2.44929 8.0876L2.07587 7.88362C2.60439 6.35541 3.51936 4.96991 4.74519 3.88159C7.33892 4.04582 9.8577 4.83175 12.0695 6.41797H12.0702Z" fill="#E2D4EE"/>
</svg>
