<svg width="33" height="32" viewBox="0 0 33 32" fill="none" xmlns="http://www.w3.org/2000/svg">
<g id="telegram" clip-path="url(#clip0_2001_268)">
<path id="Vector" d="M16.043 32C24.8816 32 32.043 24.8387 32.043 16C32.043 7.16133 24.8816 0 16.043 0C7.2043 0 0.0429688 7.16133 0.0429688 16C0.0429688 24.8387 7.2043 32 16.043 32ZM7.3643 15.6533L22.791 9.70533C23.507 9.44667 24.1323 9.88 23.9003 10.9627L23.9016 10.9613L21.275 23.336C21.0803 24.2133 20.559 24.4267 19.8296 24.0133L15.8296 21.0653L13.9003 22.924C13.687 23.1373 13.507 23.3173 13.0936 23.3173L13.3776 19.2467L20.791 12.5493C21.1136 12.2653 20.719 12.1053 20.2936 12.388L11.1323 18.156L7.18297 16.924C6.32564 16.652 6.30697 16.0667 7.3643 15.6533Z" fill="#B6B8C8"/>
</g>
<defs>
<clipPath id="clip0_2001_268">
<rect width="32" height="32" fill="white" transform="translate(0.0429688)"/>
</clipPath>
</defs>
</svg>
