<svg width="33" height="32" viewBox="0 0 33 32" fill="none" xmlns="http://www.w3.org/2000/svg">
<g id="messenger" clip-path="url(#clip0_2001_257)">
<g id="Layer 2">
<g id="Color">
<g id="38.Messenger">
<path id="Vector" d="M20.6135 13.8106L17.5167 15.5011C17.4496 15.54 17.3712 15.5548 17.2946 15.5429C17.218 15.531 17.1477 15.4932 17.0956 15.4358L15.2956 13.5264C15.2704 13.4994 15.2399 13.4779 15.2061 13.4632C15.1722 13.4485 15.1357 13.4409 15.0988 13.4409C15.0619 13.4409 15.0253 13.4485 14.9915 13.4632C14.9576 13.4779 14.9271 13.4994 14.9019 13.5264L11.1735 17.4737C11.1554 17.495 11.1452 17.5218 11.1444 17.5497C11.1437 17.5777 11.1526 17.605 11.1696 17.6271C11.1866 17.6493 11.2107 17.665 11.2378 17.6715C11.265 17.6781 11.2935 17.6751 11.3188 17.6632L14.4767 15.9621C14.542 15.927 14.6171 15.9142 14.6904 15.9256C14.7637 15.937 14.8313 15.972 14.883 16.0253L16.6746 17.9074C16.6997 17.934 16.7301 17.9553 16.7638 17.9698C16.7974 17.9842 16.8337 17.9917 16.8703 17.9917C16.907 17.9917 16.9433 17.9842 16.9769 17.9698C17.0106 17.9553 17.041 17.934 17.0661 17.9074L20.7588 14C20.7804 13.9797 20.7937 13.952 20.796 13.9224C20.7984 13.8928 20.7897 13.8633 20.7717 13.8397C20.7536 13.8162 20.7274 13.8001 20.6982 13.7947C20.669 13.7893 20.6388 13.795 20.6135 13.8106Z" fill="#B6B8C8"/>
<path id="Vector_2" d="M16.043 0C12.8785 0 9.78504 0.938384 7.15385 2.69649C4.52267 4.45459 2.47191 6.95345 1.2609 9.87707C0.0499013 12.8007 -0.266952 16.0177 0.350411 19.1214C0.967775 22.2251 2.49163 25.0761 4.72927 27.3137C6.96691 29.5513 9.81783 31.0752 12.9215 31.6926C16.0252 32.3099 19.2423 31.9931 22.1659 30.7821C25.0895 29.5711 27.5884 27.5203 29.3465 24.8891C31.1046 22.2579 32.043 19.1645 32.043 16C32.043 11.7565 30.3573 7.68687 27.3567 4.68629C24.3561 1.68571 20.2864 0 16.043 0ZM16.043 23.1979C15.2569 23.199 14.4741 23.0971 13.7146 22.8947L11.0851 24.3874C11.0556 24.4042 11.0222 24.413 10.9883 24.413C10.9543 24.413 10.921 24.4042 10.8915 24.3874C10.8619 24.3707 10.8373 24.3465 10.8199 24.3173C10.8026 24.2882 10.7931 24.255 10.7924 24.2211L10.7588 21.4737C9.79614 20.7764 9.01077 19.8627 8.46592 18.8063C7.92107 17.7498 7.63197 16.5802 7.62192 15.3916C7.62192 11.08 11.3924 7.57895 16.043 7.57895C20.6935 7.57895 24.464 11.0737 24.464 15.3853C24.464 19.6968 20.6935 23.1979 16.043 23.1979Z" fill="#B6B8C8"/>
</g>
</g>
</g>
</g>
<defs>
<clipPath id="clip0_2001_257">
<rect width="32" height="32" fill="white" transform="translate(0.0429688)"/>
</clipPath>
</defs>
</svg>
