<svg width="33" height="32" viewBox="0 0 33 32" fill="none" xmlns="http://www.w3.org/2000/svg">
<g id="_&#195;&#171;&#195;&#142;&#195;&#147;&#195;&#136;_1" clip-path="url(#clip0_2001_270)">
<path id="Vector" d="M26.8354 26.7924C32.7957 20.8321 32.7957 11.1684 26.8354 5.20807C20.875 -0.752276 11.2114 -0.752275 5.25103 5.20807C-0.709319 11.1684 -0.709319 20.8321 5.25103 26.7924C11.2114 32.7528 20.875 32.7528 26.8354 26.7924Z" fill="#B6B8C8"/>
<path id="Vector_2" d="M16.0431 32C7.22053 32 0.0429688 24.8224 0.0429688 16.0001C0.0429688 7.17784 7.22053 0 16.0431 0C24.8657 0 32.0433 7.17756 32.0433 16.0001C32.0433 24.8227 24.8657 32.0003 16.0431 32.0003V32ZM16.0431 1.47542C8.03435 1.47542 1.51867 7.99109 1.51867 15.9999C1.51867 24.0086 8.03435 30.5243 16.0431 30.5243C24.0519 30.5243 30.5676 24.0086 30.5676 15.9999C30.5676 7.99109 24.0519 1.47542 16.0431 1.47542Z" fill="#B6B8C8"/>
<path id="Vector_3" d="M8.07654 8.37451L19.6995 23.6826H24.4224L12.6764 8.37451H8.07654Z" fill="#111627"/>
<path id="Vector_4" d="M24.4409 23.6918H19.6949L19.692 23.6881L8.05798 8.36548H12.6806L12.6835 8.36918L24.4407 23.6918H24.4409ZM19.7037 23.6735H24.4036L12.6718 8.38372H8.09504L19.704 23.6735H19.7037Z" fill="#111627"/>
<path id="Vector_5" d="M7.70685 23.6826H9.30854L24.1349 8.37451H22.5332L7.70685 23.6826Z" fill="#111627"/>
<path id="Vector_6" d="M9.31253 23.6918H7.68518L7.70029 23.6764L22.5292 8.36548H24.1565L24.1414 8.38087L9.31253 23.6918ZM7.72851 23.6735H9.30484L24.1132 8.38372H22.5369L7.72851 23.6735Z" fill="#111627"/>
<path id="Vector_7" d="M10.13 9.44751H12.0604L22.1634 22.4449H20.0688L10.13 9.44751Z" fill="#B6B8C8"/>
<path id="Vector_8" d="M22.1822 22.4539H20.0643L20.0614 22.4502L10.1112 9.43823H12.0644L12.0672 9.44165L22.1819 22.4539H22.1822ZM20.0734 22.4354H22.1449L12.0558 9.45648H10.1485L20.0734 22.4354Z" fill="#B6B8C8"/>
</g>
<defs>
<clipPath id="clip0_2001_270">
<rect width="32" height="32" fill="white" transform="translate(0.0429688)"/>
</clipPath>
</defs>
</svg>
