<svg width="33" height="32" viewBox="0 0 33 32" fill="none" xmlns="http://www.w3.org/2000/svg">
<g id="instagram">
<g id="Group">
<path id="Vector" d="M19.0305 9.93115H13.0617C11.3617 9.93115 9.97424 11.3124 9.97424 13.0187V18.9874C9.97424 20.6874 11.3555 22.0749 13.0617 22.0749H19.0305C20.7305 22.0749 22.118 20.6937 22.118 18.9874V13.0187C22.1117 11.3124 20.7305 9.93115 19.0305 9.93115ZM16.043 19.9937C13.843 19.9937 12.0492 18.1999 12.0492 15.9999C12.0492 13.7999 13.843 12.0062 16.043 12.0062C18.243 12.0062 20.0367 13.7999 20.0367 15.9999C20.0367 18.1999 18.243 19.9937 16.043 19.9937ZM20.2367 12.4499C19.8617 12.4499 19.5617 12.1499 19.5617 11.7749C19.5617 11.3999 19.8617 11.0999 20.2367 11.0999C20.6117 11.0999 20.9117 11.3999 20.9117 11.7749C20.9117 12.1499 20.6117 12.4499 20.2367 12.4499Z" fill="#B6B8C8"/>
<path id="Vector_2" d="M18.4707 16.0294C18.4868 14.6901 17.4141 13.5914 16.0748 13.5753C14.7355 13.5593 13.6368 14.6319 13.6207 15.9712C13.6046 17.3105 14.6773 18.4093 16.0166 18.4253C17.3559 18.4414 18.4546 17.3687 18.4707 16.0294Z" fill="#B6B8C8"/>
<path id="Vector_3" d="M16.043 1.9375C8.27422 1.9375 1.98047 8.23125 1.98047 16C1.98047 23.7687 8.27422 30.0625 16.043 30.0625C23.8117 30.0625 30.1055 23.7687 30.1055 16C30.1055 8.23125 23.8117 1.9375 16.043 1.9375ZM23.8555 18.9875C23.8555 21.65 21.693 23.8125 19.0305 23.8125H13.0617C10.3992 23.8125 8.23672 21.65 8.23672 18.9875V13.0188C8.23672 10.3563 10.3992 8.19375 13.0617 8.19375H19.0305C21.693 8.19375 23.8555 10.3563 23.8555 13.0188V18.9875Z" fill="#B6B8C8"/>
</g>
</g>
</svg>
