<svg width="356" height="183" viewBox="0 0 356 183" fill="none" xmlns="http://www.w3.org/2000/svg">
<path opacity="0.12" d="M-4.77221 5.14484C-6.50816 19.1021 -0.479876 34.519 8.16082 45.6152L45.4287 93.4682C54.0694 104.564 66.7678 111.774 80.7228 113.51L400.833 153.333" stroke="#AD76E0" stroke-width="3.55" stroke-miterlimit="10"/>
<path opacity="0.25" d="M-6.15294 12.2342C-7.88889 26.1915 -4.00874 40.2658 4.63196 51.3621L41.8999 99.2151C50.5406 110.311 63.2389 117.521 77.194 119.257L397.305 159.08" stroke="#AD76E0" stroke-width="3.55" stroke-miterlimit="10"/>
<path opacity="0.38" d="M-9.67833 17.9811C-11.4143 31.9384 -7.53413 46.0128 1.10657 57.109L38.3745 104.962C47.0152 116.058 59.7135 123.268 73.6685 125.003L393.779 164.827" stroke="#AD76E0" stroke-width="3.55" stroke-miterlimit="10"/>
<path opacity="0.5" d="M-13.2066 23.728C-14.9426 37.6853 -11.0624 51.7597 -2.42175 62.8559L34.8461 110.709C43.4868 121.805 56.1852 129.014 70.1402 130.75L390.251 170.574" stroke="#AD76E0" stroke-width="3.55" stroke-miterlimit="10"/>
<path opacity="0.62" d="M-16.7355 29.475C-18.4714 43.4322 -14.5913 57.5066 -5.95056 68.6029L31.3173 116.456C39.958 127.552 52.6564 134.761 66.6114 136.497L386.722 176.321" stroke="#AD76E0" stroke-width="3.55" stroke-miterlimit="10"/>
<path opacity="0.75" d="M-20.2638 35.2219C-21.9997 49.1792 -18.1196 63.2536 -9.47888 74.3498L27.789 122.203C36.4297 133.299 49.1281 140.508 63.0831 142.244L383.194 182.068" stroke="#AD76E0" stroke-width="3.55" stroke-miterlimit="10"/>
<path opacity="0.88" d="M-23.7931 40.9688C-25.529 54.9261 -21.6489 69.0005 -13.0082 80.0967L24.2597 127.95C32.9004 139.046 45.5988 146.255 59.5538 147.991L379.664 187.815" stroke="#AD76E0" stroke-width="3.55" stroke-miterlimit="10"/>
<path d="M-27.3214 46.7157C-29.0573 60.673 -25.1772 74.7474 -16.5365 85.8436L20.7314 133.696C29.3721 144.793 42.0705 152.002 56.0255 153.738L376.136 193.561" stroke="#AD76E0" stroke-width="3.55" stroke-miterlimit="10"/>
<path d="M31.4204 145.231C34.923 149.201 39.758 151.749 45.0122 152.396L196.838 171.083L196.854 171.085L346.711 182.672H0.501465V110.19L31.4204 145.231Z" fill="url(#paint0_linear_5001_90795)" stroke="#AD76E0" stroke-width="0.71"/>
<defs>
<linearGradient id="paint0_linear_5001_90795" x1="0.145996" y1="146.138" x2="355.909" y2="146.138" gradientUnits="userSpaceOnUse">
<stop stop-color="#AD76E0"/>
<stop offset="1" stop-color="#AD76E0"/>
</linearGradient>
</defs>
</svg>
